#define close_width 11
#define close_height 11
static unsigned char close_bits[] = {
   0xf8, 0x00, 0xfc, 0x01, 0xfe, 0x03, 0xff, 0x07, 0xaf, 0x07, 0xdf, 0x07,
   0xaf, 0x07, 0xff, 0x07, 0xfe, 0x03, 0xfc, 0x01, 0xf8, 0x00 };
