#define max_width 12
#define max_height 12
static unsigned char max_bits[] = {
   0x00, 0x00, 0x00, 0x00, 0xfc, 0x01, 0xfc, 0x01, 0x8c, 0x01, 0x8c, 0x01,
   0x8c, 0x01, 0xfc, 0x01, 0xfc, 0x01, 0x00, 0x00, 0x00, 0x00, 0x00, 0x00 };
